P3
# testimage.ppm
4 4
15
 1  2  3    0  0  0    0  0  0   15 12  9
 0  0  0    7  8  9    0  0  0    0  0  0
 0  0  0    0  0  0    3  5  7    0  0  0
10 11 12    0  0  0    0  0  0    0  0  0
